<svg width="150" height="133" fill="none" xmlns="http://www.w3.org/2000/svg">
<symbol id="1" viewBox="0 0 150 133">
<g opacity="0.83">
<path d="M92.9488 56.6717L73.4277 19.958L110.141 0.436989C120.911 20.6907 113.202 45.9026 92.9488 56.6717Z" fill="#7DCE94"/>
<path d="M112.469 93.3856L92.9482 56.6719L129.662 37.1509C140.431 57.4046 132.723 82.6165 112.469 93.3856Z" fill="#7DCE94"/>
<path d="M56.2344 76.1929L92.9481 56.6719L112.469 93.3855C92.2154 104.155 67.0035 96.4466 56.2344 76.1929Z" fill="#7DCE94"/>
<path d="M56.2352 76.1928L75.7562 112.907L39.0425 132.428C28.2409 112.113 35.9815 86.9619 56.2352 76.1928Z" fill="#7DCE94"/>
<path d="M36.7147 39.479L56.2357 76.1927L19.522 95.7137C8.72037 75.3988 16.461 50.2481 36.7147 39.479Z" fill="#7DCE94"/>
<path d="M92.9486 56.6717L56.2349 76.1927L36.7139 39.479C56.9676 28.7099 82.147 36.3568 92.9486 56.6717Z" fill="#7DCE94"/>
</g>
</symbol>
</svg>
