<svg width="129" height="129"  fill="none" xmlns="http://www.w3.org/2000/svg">
	<symbol id="8" viewBox="0 0 129 129" >
<g opacity="0.92">
<path d="M116.089 57.6076L96.9467 70.519L109.858 89.6609C120.407 82.5453 123.233 68.1994 116.089 57.6076Z" fill="#6D3EA2"/>
<path d="M77.805 83.4306L96.947 70.5192L109.858 89.6611C99.3091 96.7768 84.9494 94.0225 77.805 83.4306Z" fill="#6D3EA2"/>
<path d="M116.089 57.6079L96.9469 70.5193L84.0355 51.3774C94.5849 44.2618 108.973 47.0586 116.089 57.6079Z" fill="#6D3EA2"/>
<path d="M45.7513 77.2001L58.6627 96.3421L77.8047 83.4307C70.6891 72.8813 56.3007 70.0845 45.7513 77.2001Z" fill="#6D3EA2"/>
<path d="M71.5739 115.484L58.6625 96.3422L77.8044 83.4308C84.9487 94.0227 82.1232 108.369 71.5739 115.484Z" fill="#6D3EA2"/>
<path d="M45.7517 77.2003L58.6631 96.3423L39.5211 109.254C32.4055 98.7044 35.2023 84.316 45.7517 77.2003Z" fill="#6D3EA2"/>
<path d="M13.6979 70.9695L32.8398 58.0581L19.9284 38.9162C9.3791 46.0318 6.58228 60.4202 13.6979 70.9695Z" fill="#6D3EA2"/>
<path d="M51.9814 45.147L32.8395 58.0584L19.9281 38.9164C30.4774 31.8008 44.8658 34.5976 51.9814 45.147Z" fill="#6D3EA2"/>
<path d="M13.6976 70.9697L32.8396 58.0583L45.751 77.2002C35.2016 84.3158 20.8419 81.5615 13.6976 70.9697Z" fill="#6D3EA2"/>
<path d="M84.0352 51.3774L71.1238 32.2355L51.9818 45.1469C59.1261 55.7388 73.4858 58.4931 84.0352 51.3774Z" fill="#6D3EA2"/>
<path d="M58.2126 13.0934L71.124 32.2354L51.9821 45.1468C44.8665 34.5974 47.6633 20.209 58.2126 13.0934Z" fill="#6D3EA2"/>
<path d="M84.0348 51.3777L71.1234 32.2358L90.2654 19.3244C97.4097 29.9162 94.5842 44.2621 84.0348 51.3777Z" fill="#6D3EA2"/>
</g>
</symbol>
</svg>
