<svg width="118" height="111"  fill="none" xmlns="http://www.w3.org/2000/svg">
	<symbol id="10"  viewBox="0 0 118 111" >
<g opacity="0.91">
<path d="M33.2324 52.3603L46.3114 32.9697L26.9209 19.8906C19.7129 30.577 22.546 45.1522 33.2324 52.3603Z" fill="#C94336"/>
<path d="M46.3115 32.9696L59.3905 13.5791L40 0.5C32.792 11.1863 35.6251 25.7616 46.3115 32.9696Z" fill="#C94336"/>
<path d="M65.7021 46.0487L46.3115 32.9696L59.3906 13.5791C70.077 20.7871 72.9392 35.3193 65.7021 46.0487Z" fill="#C94336"/>
<path d="M46.3115 32.9697L33.2324 52.3603L52.623 65.4394C59.8601 54.7099 56.9979 40.1778 46.3115 32.9697Z" fill="#C94336"/>
<path d="M52.623 65.4394L33.2324 52.3604L20.1533 71.7509C30.8397 78.9589 45.4149 76.1258 52.623 65.4394Z" fill="#C94336"/>
<path d="M13.8418 39.2812L33.2323 52.3603L20.1533 71.7509C9.46691 64.5428 6.63377 49.9676 13.8418 39.2812Z" fill="#C94336"/>
<path d="M72.0136 78.5185L85.0927 59.1279L65.7021 46.0488C58.4941 56.7352 61.3273 71.3104 72.0136 78.5185Z" fill="#C94336"/>
<path d="M98.1719 39.7373L85.0928 59.1278L104.483 72.2069C111.72 61.4775 108.858 46.9453 98.1719 39.7373Z" fill="#C94336"/>
<path d="M98.1718 39.7373L85.0927 59.1278L65.7022 46.0487C72.9393 35.3193 87.4854 32.5293 98.1718 39.7373Z" fill="#C94336"/>
<path d="M85.0928 59.1279L72.0137 78.5185L91.4042 91.5976C98.6413 80.8681 95.7791 66.336 85.0928 59.1279Z" fill="#C94336"/>
<path d="M72.0137 78.5186L58.9346 97.9091L78.3251 110.988C85.5622 100.259 82.7 85.7266 72.0137 78.5186Z" fill="#C94336"/>
<path d="M52.623 65.4395L72.0136 78.5185L58.9345 97.9091C48.2482 90.7011 45.415 76.1258 52.623 65.4395Z" fill="#C94336"/>
</g>
</symbol>
</svg>
