<svg width="154" height="154"  fill="none" xmlns="http://www.w3.org/2000/svg">
	<symbol id="15"  viewBox="0 0 154 154"  >
<g opacity="0.76">
<path d="M118.877 120.83L102.656 86.0433L137.442 69.8223C146.391 89.0126 138.126 111.854 118.877 120.83Z" fill="#00B0FF"/>
<path d="M67.8701 102.265L102.656 86.0435L118.877 120.83C99.6869 129.778 76.8187 121.455 67.8701 102.265Z" fill="#00B0FF"/>
<path d="M51.6487 67.4784L35.4277 32.6923L70.2139 16.4712C79.1625 35.6616 70.8971 58.5028 51.6487 67.4784Z" fill="#00B0FF"/>
<path d="M121.221 35.0361L137.442 69.8223L102.656 86.0434C93.707 66.853 102.03 43.9848 121.221 35.0361Z" fill="#00B0FF"/>
<path d="M16.8623 83.6996L51.6484 67.4785L67.8695 102.265C48.6791 111.213 25.8109 102.89 16.8623 83.6996Z" fill="#00B0FF"/>
<path d="M35.4277 32.6919L51.6488 67.4781L16.8626 83.6991C7.91399 64.5088 16.2374 41.6405 35.4277 32.6919Z" fill="#00B0FF"/>
<path d="M102.656 86.0435L67.8695 102.265L51.6484 67.4784C70.8967 58.5027 93.707 66.8531 102.656 86.0435Z" fill="#00B0FF"/>
<path d="M70.2138 16.4716L105 0.250488L121.221 35.0367C102.031 43.9853 79.1624 35.6619 70.2138 16.4716Z" fill="#00B0FF"/>
<path d="M33.0839 118.486L67.8701 102.265L84.0912 137.051C64.9008 145.999 42.0326 137.676 33.0839 118.486Z" fill="#00B0FF"/>
</g>
</symbol>
</svg>
