<svg width="123" height="137"  fill="none" xmlns="http://www.w3.org/2000/svg">
	<symbol id="3" viewBox="0 0 123 137">
<g opacity="0.76">
<path d="M84.7786 104.089L51.8848 85.0974L32.8936 117.991C51.04 128.468 74.3018 122.235 84.7786 104.089Z" fill="#00B0FF"/>
<path d="M37.9825 33.2122L18.9912 66.106L51.885 85.0972C62.3618 66.9508 56.1289 43.689 37.9825 33.2122Z" fill="#00B0FF"/>
<path d="M37.9824 33.2124L56.9737 0.318605L89.8675 19.3098C79.3906 37.4563 56.1288 43.6892 37.9824 33.2124Z" fill="#00B0FF"/>
<path d="M103.77 71.1951L84.7786 104.089L51.8848 85.0977C62.3616 66.9512 85.5686 60.6866 103.77 71.1951Z" fill="#00B0FF"/>
<path d="M89.8672 19.3098L122.761 38.3011L103.77 71.1949C85.5685 60.6864 79.3904 37.4562 89.8672 19.3098Z" fill="#00B0FF"/>
</g>
</symbol>
</svg>
