<svg width="83" height="72"  fill="none" xmlns="http://www.w3.org/2000/svg">
	<symbol id="5" viewBox="0 0 83 72">
<g opacity="0.72">
<path d="M25.8492 45.5392L35.7012 61.3057L19.9347 71.1576C14.5052 62.4686 17.1602 50.9688 25.8492 45.5392Z" fill="#7DCE94"/>
<path d="M15.9967 29.7731L25.8486 45.5396L10.0822 55.3915C4.65268 46.7025 7.30762 35.2026 15.9967 29.7731Z" fill="#7DCE94"/>
<path d="M31.7633 19.9211L15.9969 29.773L25.8488 45.5395C34.5379 40.1099 37.2147 28.6452 31.7633 19.9211Z" fill="#7DCE94"/>
<path d="M35.7004 61.3061L25.8484 45.5396L41.6148 35.6877C47.0663 44.4118 44.3894 55.8765 35.7004 61.3061Z" fill="#7DCE94"/>
<path d="M57.3818 25.8354L47.5299 10.069L31.7635 19.921C37.2149 28.6451 48.6928 31.265 57.3818 25.8354Z" fill="#7DCE94"/>
<path d="M67.2334 41.6021L57.3814 25.8356L41.615 35.6876C47.0664 44.4117 58.5443 47.0316 67.2334 41.6021Z" fill="#7DCE94"/>
<path d="M83 31.75L67.2336 41.602L57.3816 25.8355C66.0707 20.406 77.5705 23.0609 83 31.75Z" fill="#7DCE94"/>
<path d="M47.5301 10.0689L57.382 25.8354L73.1484 15.9834C67.7189 7.29435 56.2191 4.63941 47.5301 10.0689Z" fill="#7DCE94"/>
</g>
</symbol>
</svg>
