<svg width="131" height="131" viewBox="0 0 131 131" fill="none" xmlns="http://www.w3.org/2000/svg">
	<symbol id="2" viewBox="0 0 131 131">
<g opacity="0.86">
<path d="M44.2666 43.5205L43.52 86.2943L0.746221 85.5477C1.15811 61.9508 20.6697 43.1086 44.2666 43.5205Z" fill="#6D3EA2"/>
<path d="M45.0127 0.746582L44.2661 43.5203L1.49231 42.7737C1.9042 19.1769 21.4158 0.334697 45.0127 0.746582Z" fill="#6D3EA2"/>
<path d="M87.0405 44.2669L44.2667 43.5203L45.0133 0.746545C68.6815 1.15967 87.4524 20.6701 87.0405 44.2669Z" fill="#6D3EA2"/>
<path d="M0.745769 85.5473L43.5195 86.2939L42.7729 129.068C19.1761 128.656 0.333884 109.144 0.745769 85.5473Z" fill="#6D3EA2"/>
<path d="M129.814 45.0135L87.0402 44.2669L87.7868 1.49313C111.455 1.90626 130.226 21.4167 129.814 45.0135Z" fill="#6D3EA2"/>
<path d="M43.5202 86.2944L86.2939 87.041L85.5473 129.815C61.9505 129.403 43.1083 109.891 43.5202 86.2944Z" fill="#6D3EA2"/>
<path d="M86.2931 87.0408L87.0397 44.2671L129.813 45.0137C129.402 68.6105 109.961 87.4539 86.2931 87.0408Z" fill="#6D3EA2"/>
<path d="M85.547 129.815L86.2936 87.041L129.067 87.7876C128.655 111.384 109.215 130.228 85.547 129.815Z" fill="#6D3EA2"/>
</g>
</symbol>
</svg>
