<svg width="140" height="113"  fill="none" xmlns="http://www.w3.org/2000/svg">
	<symbol id="11"  viewBox="0 0 140 113" >
<g opacity="0.73">
<path d="M62.2299 100.927L50.4235 62.3103L11.8066 74.1167C18.3198 95.4204 40.9263 107.44 62.2299 100.927Z" fill="#00B0FF"/>
<path d="M77.2341 11.8875L38.6172 23.6938L50.4236 62.3108C71.7272 55.7976 83.7473 33.1911 77.2341 11.8875Z" fill="#00B0FF"/>
<path d="M77.2334 11.8872L115.85 0.0808329L127.657 38.6977C106.353 45.2109 83.7466 33.1909 77.2334 11.8872Z" fill="#00B0FF"/>
<path d="M100.846 89.1211L62.2292 100.927L50.4229 62.3105C71.7265 55.7974 94.3133 67.7531 100.846 89.1211Z" fill="#00B0FF"/>
<path d="M127.657 38.6975L139.463 77.3144L100.846 89.1208C94.3136 67.7528 106.353 45.2107 127.657 38.6975Z" fill="#00B0FF"/>
</g>
</symbol>
</svg>
