<svg width="171" height="172" fill="none" xmlns="http://www.w3.org/2000/svg">
	<symbol id="12"  viewBox="0 0 171 172" >
<g opacity="0.83">
<path d="M66.0662 62.6355L89.2666 43.168L108.734 66.3684C95.9481 77.0972 76.7949 75.4215 66.0662 62.6355Z" fill="#C94336"/>
<path d="M62.3334 105.303L42.866 82.1027L66.0664 62.6353C76.7952 75.4213 75.171 94.5312 62.3334 105.303Z" fill="#C94336"/>
<path d="M42.8657 82.103L66.0661 62.6355L46.5986 39.4351C33.8126 50.1638 32.1369 69.317 42.8657 82.103Z" fill="#C94336"/>
<path d="M131.935 46.9011L108.735 66.3686L89.2673 43.1682C102.105 32.3962 121.207 34.1151 131.935 46.9011Z" fill="#C94336"/>
<path d="M124.469 132.237L105.002 109.036L128.202 89.5688C138.931 102.355 137.307 121.465 124.469 132.237Z" fill="#C94336"/>
<path d="M39.1335 124.771L62.334 105.303L81.8015 128.504C69.0154 139.232 49.8623 137.557 39.1335 124.771Z" fill="#C94336"/>
<path d="M62.3337 105.303L81.8012 128.504L105.002 109.036C94.2729 96.2504 75.1713 94.5314 62.3337 105.303Z" fill="#C94336"/>
<path d="M108.734 66.3687L128.202 89.5691L105.001 109.037C94.2727 96.2506 95.9483 77.0974 108.734 66.3687Z" fill="#C94336"/>
</g>
</symbol>
</svg>
