<svg width="373" height="187" viewBox="0 0 373 187" fill="none" xmlns="http://www.w3.org/2000/svg">
<path opacity="0.05" d="M1.63043e-05 0.499967C1.41632e-05 24.9915 4.82399 49.2432 14.1965 71.8704C23.569 94.4977 37.3065 115.057 54.6246 132.375C71.9427 149.694 92.5023 163.431 115.13 172.804C137.757 182.176 162.008 187 186.5 187C210.992 187 235.243 182.176 257.87 172.804C280.498 163.431 301.057 149.694 318.375 132.375C335.694 115.057 349.431 94.4977 358.804 71.8704C368.176 49.2432 373 24.9915 373 0.499985L265.572 0.499991C265.572 10.8839 263.527 21.1661 259.553 30.7595C255.579 40.3529 249.755 49.0698 242.412 56.4123C235.07 63.7548 226.353 69.5792 216.76 73.5529C207.166 77.5266 196.884 79.5719 186.5 79.5719C176.116 79.5719 165.834 77.5266 156.241 73.5529C146.647 69.5792 137.93 63.7548 130.588 56.4123C123.245 49.0698 117.421 40.3529 113.447 30.7595C109.473 21.166 107.428 10.8838 107.428 0.499977L1.63043e-05 0.499967Z" fill="white"/>
</svg>
