<svg width="373" height="187" viewBox="0 0 373 187" fill="none" xmlns="http://www.w3.org/2000/svg">
<path opacity="0.05" d="M373 186.5C373 162.008 368.176 137.757 358.804 115.13C349.431 92.5023 335.694 71.9427 318.375 54.6246C301.057 37.3065 280.498 23.569 257.87 14.1965C235.243 4.82396 210.992 -1.07056e-06 186.5 0C162.008 1.07056e-06 137.757 4.82397 115.13 14.1965C92.5023 23.569 71.9427 37.3065 54.6246 54.6246C37.3064 71.9427 23.569 92.5023 14.1965 115.13C4.82396 137.757 -2.14112e-06 162.008 0 186.5L107.428 186.5C107.428 176.116 109.473 165.834 113.447 156.24C117.421 146.647 123.245 137.93 130.588 130.588C137.93 123.245 146.647 117.421 156.24 113.447C165.834 109.473 176.116 107.428 186.5 107.428C196.884 107.428 207.166 109.473 216.76 113.447C226.353 117.421 235.07 123.245 242.412 130.588C249.755 137.93 255.579 146.647 259.553 156.24C263.527 165.834 265.572 176.116 265.572 186.5H373Z" fill="white"/>
</svg>
