<svg width="381" height="437" viewBox="0 0 381 437" fill="none" xmlns="http://www.w3.org/2000/svg">
<path fill-rule="evenodd" clip-rule="evenodd" d="M311.761 28.4765C350.303 55.7188 365.241 104.711 376.121 150.557C385.415 189.722 380.381 229.582 368.607 268.018C357.741 303.492 342.079 339.065 311.801 360.532C283.161 380.837 244.313 369.455 210.769 379.926C164.02 394.52 124.486 448.881 77.8905 433.552C32.8795 418.744 21.7103 358.963 8.7332 313.46C-2.73578 273.245 -0.856361 231.816 8.76757 191.18C18.1808 151.433 36.0714 115.417 62.9236 84.6454C92.9828 50.1991 126.169 15.5401 170.836 5.45754C218.379 -5.27417 271.902 0.303792 311.761 28.4765Z" fill="#6D3EA2"/>
</svg>
