<svg id="Capa_1" enable-background="new 0 0 512 512" height="512" viewBox="0 0 512 512" width="512" xmlns="http://www.w3.org/2000/svg"><g><path d="m256 0c-109.867 0-199.25 89.383-199.25 199.25 0 44.269 14.224 86.192 41.134 121.237 0 0 140.286 182.712 140.286 182.712 4.301 5.593 10.8 8.801 17.83 8.801s13.528-3.208 17.834-8.806l140.281-182.707c26.911-35.045 41.135-76.968 41.135-121.237 0-109.867-89.383-199.25-199.25-199.25zm146.218 311.352-140.279 182.703c-1.439 1.871-3.604 2.945-5.939 2.945s-4.5-1.074-5.936-2.94l-140.282-182.708c-24.881-32.402-38.032-71.166-38.032-112.102 0-101.596 82.654-184.25 184.25-184.25s184.25 82.654 184.25 184.25c0 40.936-13.151 79.7-38.032 112.102z"/><path d="m143.5 199.25c0 62.033 50.467 112.5 112.5 112.5 62.055-.023 112.5-50.481 112.5-112.5 0-4.142-3.357-7.5-7.5-7.5-47.801 0-88.733 29.966-105 72.099-16.267-42.133-57.2-72.099-105-72.099-4.142 0-7.5 3.358-7.5 7.5zm209.69 7.81c-2.443 30.674-19.156 57.377-43.468 73.495.189-.264.381-.522.568-.789 12.957-18.431 20.971-42.738 22.802-68.925 6.45-1.93 13.169-3.23 20.098-3.781zm-35.764 10.005c-2.469 20.659-9.188 39.54-19.406 54.075-9.63 13.699-21.542 22.272-34.159 24.805 2.93-34.563 23.969-64.028 53.565-78.88zm-69.287 78.874c-12.622-2.54-24.532-11.113-34.159-24.806-10.217-14.532-16.936-33.411-19.406-54.069 29.595 14.852 50.633 44.315 53.565 78.875zm-69.232-85.098c1.831 26.186 9.846 50.491 22.802 68.92.19.27.384.532.575.799-24.316-16.118-41.032-42.823-43.475-73.5 6.93.551 13.649 1.851 20.098 3.781z"/><path d="m256 56.75c-32.694 0-63.451 10.779-88.944 31.171-3.234 2.587-3.759 7.307-1.172 10.542 2.588 3.235 7.309 3.759 10.542 1.172 22.805-18.243 50.322-27.885 79.574-27.885 70.304 0 127.5 57.196 127.5 127.5s-57.196 127.5-127.5 127.5-127.5-57.196-127.5-127.5c0-29.252 9.642-56.769 27.885-79.574 2.587-3.235 2.063-7.955-1.172-10.542-3.236-2.587-7.955-2.063-10.542 1.172-20.392 25.493-31.171 56.25-31.171 88.944 0 78.575 63.925 142.5 142.5 142.5s142.5-63.925 142.5-142.5-63.925-142.5-142.5-142.5z"/></g></svg>