<svg width="20" height="18" viewBox="0 0 20 18" fill="none" xmlns="http://www.w3.org/2000/svg">
<path id="telegramm_red" fill-rule="evenodd" clip-rule="evenodd" d="M10.6537 13.8229C9.88554 14.5803 9.1257 15.3243 8.3724 16.075C8.10902 16.3375 7.81275 16.4824 7.43497 16.4618C7.17768 16.4478 7.03326 16.3321 6.95442 16.084C6.37793 14.2697 5.79203 12.4585 5.21816 10.6434C5.16224 10.4667 5.07803 10.3818 4.90265 10.3274C3.54335 9.90631 2.18676 9.47607 0.831909 9.04054C0.631306 8.97605 0.428197 8.89316 0.254146 8.77615C-0.0487787 8.57257 -0.0920099 8.24886 0.184618 8.01448C0.44022 7.79789 0.743247 7.61654 1.05369 7.49212C2.77128 6.80392 4.49761 6.13801 6.22082 5.46416C10.366 3.84321 14.5114 2.22242 18.6564 0.600693C19.4509 0.289796 20.0683 0.720967 19.9939 1.58912C19.9449 2.1614 19.7978 2.72622 19.6798 3.2912C18.7613 7.68871 17.8392 12.0854 16.9182 16.4824C16.9164 16.4909 16.9158 16.4996 16.914 16.508C16.6887 17.5139 15.9674 17.7889 15.145 17.1757C13.7172 16.1112 12.293 15.0419 10.8671 13.9749C10.7997 13.9245 10.73 13.8772 10.6537 13.8229ZM7.49877 15.2077C7.52097 15.1045 7.53637 15.0569 7.54088 15.0083C7.63148 14.0194 7.72618 13.0308 7.8064 12.0411C7.82426 11.8214 7.88893 11.6592 8.05663 11.5067C10.2203 9.5389 12.3773 7.56356 14.536 5.59019C15.1501 5.02884 15.7667 4.4703 16.3748 3.90242C16.4387 3.8428 16.4525 3.72823 16.4896 3.63916C16.3957 3.6122 16.2904 3.54388 16.2102 3.56653C16.0248 3.61889 15.838 3.6936 15.6754 3.79718C12.4659 5.84256 9.2604 7.89452 6.05071 9.9397C5.8874 10.0437 5.84079 10.1294 5.90628 10.3287C6.41451 11.8755 6.90801 13.4273 7.40683 14.9773C7.42638 15.0381 7.45395 15.0961 7.49877 15.2077Z" fill="white"/>
</svg>
