<svg width="24" height="14" viewBox="0 0 24 14" fill="none" xmlns="http://www.w3.org/2000/svg">
<path id="vk_red" fill-rule="evenodd" clip-rule="evenodd" d="M11.7425 13.4453H13.1772C13.1772 13.4453 13.6102 13.4003 13.8314 13.1742C14.0357 12.9658 14.0289 12.5755 14.0289 12.5755C14.0289 12.5755 14.0009 10.7483 14.8941 10.4787C15.7746 10.2132 16.9059 12.2448 18.1041 13.0261C19.0109 13.6175 19.6998 13.488 19.6998 13.488L22.9048 13.4453C22.9048 13.4453 24.581 13.3472 23.7861 12.096C23.7208 11.9938 23.3225 11.1699 21.4031 9.47776C19.393 7.70679 19.6625 7.99324 22.0836 4.92925C23.5573 3.06414 24.1471 1.9248 23.9623 1.4372C23.7869 0.972132 22.7031 1.09524 22.7031 1.09524L19.0939 1.11616C19.0939 1.11616 18.8261 1.08156 18.6278 1.19421C18.4346 1.30444 18.31 1.56192 18.31 1.56192C18.31 1.56192 17.738 3.0054 16.9771 4.23325C15.3703 6.82412 14.7271 6.96091 14.4644 6.79999C13.8535 6.42503 14.006 5.29454 14.006 4.49073C14.006 1.97951 14.4077 0.932706 13.2255 0.661549C12.8332 0.572236 12.5442 0.512695 11.5408 0.503039C10.2536 0.490165 9.16383 0.506258 8.54691 0.793507C8.13591 0.984201 7.81897 1.40984 8.01219 1.43398C8.25031 1.46456 8.79097 1.57238 9.07739 1.9425C9.44687 2.42045 9.43416 3.493 9.43416 3.493C9.43416 3.493 9.64686 6.44837 8.93757 6.81608C8.45115 7.06712 7.78423 6.55377 6.35124 4.20268C5.61738 2.99897 5.06316 1.66813 5.06316 1.66813C5.06316 1.66813 4.95639 1.4195 4.76572 1.28593C4.53437 1.12501 4.2115 1.07351 4.2115 1.07351L0.781993 1.09524C0.781993 1.09524 0.267609 1.10892 0.0786339 1.32134C-0.0900028 1.51042 0.0650752 1.90147 0.0650752 1.90147C0.0650752 1.90147 2.7497 7.8653 5.7894 10.8706C8.57742 13.6264 11.7425 13.4453 11.7425 13.4453Z" fill="white"/>
</svg>
